# xmcd
#
# Track frame offsets:
#	150
#	12465
#	26598
#	40614
#	51391
#	62895
#	74815
#	86685
#	98698
#	111626
#	122726
#	136448
#	146458
#	158894
#	171925
#	185952
#
# Disc length: 2645 seconds
#
# Revision: 1
# Processed by: cddbd v1.4PL0 Copyright (c) Steve Scherf et al.
# Submitted via: EasyCDDAExtractor 5.0.6
#
DISCID=f40a5310
DTITLE=Various Artist - Queens of Country
DYEAR=2000
DGENRE=Country
TTITLE0=Making Believe
TTITLE1=Do I Love You
TTITLE2=Cry
TTITLE3=I'm So Lonesome I Could Cry
TTITLE4=The Heart You Break May Be Your Own
TTITLE5=We Missed You
TTITLE6=The Happiest Girl In The Whole USA
TTITLE7=How Can I Unlove You
TTITLE8=He's Gone Run Again
TTITLE9=(It Wasn't God Who Made) Honky Tonk Angels
TTITLE10=Talking In Your Sleep
TTITLE11=I Can't Stop Loving You
TTITLE12=Sunshine
TTITLE13=Fingerprints
TTITLE14=Teddy Bear Song
TTITLE15=Two Little Orphans
EXTD=
EXTT0=
EXTT1=
EXTT2=
EXTT3=
EXTT4=
EXTT5=
EXTT6=
EXTT7=
EXTT8=
EXTT9=
EXTT10=
EXTT11=
EXTT12=
EXTT13=
EXTT14=
EXTT15=
PLAYORDER=
